<svg id="Слой_1" data-name="Слой 1" xmlns="http://www.w3.org/2000/svg" viewBox="0 0 84.2 84.2">
  <defs>
    <style>
      .cls-1 {
        fill: #010202;
      }

      .cls-2 {
        fill: red;
      }
    </style>
  </defs>
  <title>angry</title>
  <g id="Слой_5" data-name="Слой 5">
    <path class="cls-1" d="M70.7,29.1a42.1,42.1,0,1,0,42.1,42.1A42.16571,42.16571,0,0,0,70.7,29.1Z" transform="translate(-28.60001 -29.1)"/>
    <path class="cls-2" d="M70.7,108.2a37.1,37.1,0,1,1,37.1-37.1A37.151,37.151,0,0,1,70.7,108.2Z" transform="translate(-28.60001 -29.1)"/>
    <path class="cls-1" d="M70.7,79.3a24.82281,24.82281,0,0,0-17.6,7.3,1.9799,1.9799,0,0,0,2.8,2.8,20.7623,20.7623,0,0,1,29.4,0,1.93334,1.93334,0,0,0,2.8,0,1.93333,1.93333,0,0,0,0-2.8A24.19352,24.19352,0,0,0,70.7,79.3Z" transform="translate(-28.60001 -29.1)"/>
    <path class="cls-1" d="M57.5,61.5a3.3,3.3,0,1,0,3.3,3.3A3.32929,3.32929,0,0,0,57.5,61.5Z" transform="translate(-28.60001 -29.1)"/>
    <path class="cls-1" d="M87.1,64.8a3.3,3.3,0,1,0-3.3,3.3A3.26523,3.26523,0,0,0,87.1,64.8Z" transform="translate(-28.60001 -29.1)"/>
    <path class="cls-1" d="M90.9,49.6L79.6,55.4a2.00409,2.00409,0,0,0-.9,2.7,2.10675,2.10675,0,0,0,1.8,1.1,2.91981,2.91981,0,0,0,.9-0.2l11.3-5.8A2.01246,2.01246,0,1,0,90.9,49.6Z" transform="translate(-28.60001 -29.1)"/>
    <path class="cls-1" d="M60.8,59.2a2.10675,2.10675,0,0,0,1.8-1.1,2.00409,2.00409,0,0,0-.9-2.7L50.4,49.6a2.01246,2.01246,0,1,0-1.8,3.6L59.8,59A1.64454,1.64454,0,0,0,60.8,59.2Z" transform="translate(-28.60001 -29.1)"/>
  </g>
</svg>
