<svg id="Слой_1" data-name="Слой 1" xmlns="http://www.w3.org/2000/svg" viewBox="0 0 84.2 84.2">
  <defs>
    <style>
      .cls-1 {
        fill: #010202;
      }

      .cls-2 {
        fill: #f0f;
      }
    </style>
  </defs>
  <title>disgust</title>
  <g id="Слой_2" data-name="Слой 2">
    <path class="cls-1" d="M71,28.9A42.1,42.1,0,1,0,113.1,71,42.16571,42.16571,0,0,0,71,28.9Z" transform="translate(-28.9 -28.9)"/>
    <path class="cls-2" d="M71,108.1A37.1,37.1,0,1,1,108.1,71,37.151,37.151,0,0,1,71,108.1Z" transform="translate(-28.9 -28.9)"/>
    <path class="cls-1" d="M90.9,83.4a6.78871,6.78871,0,0,1-2.7-1.2,10.49336,10.49336,0,0,0-5.3-1.8h0A10.658,10.658,0,0,0,78,82.1a8.58671,8.58671,0,0,1-3.1,1.3,7.10947,7.10947,0,0,1-3.1-1.3,10.65793,10.65793,0,0,0-4.9-1.7h0a11.54479,11.54479,0,0,0-5.2,1.8,7.10919,7.10919,0,0,1-2.8,1.2A7.80751,7.80751,0,0,1,55.4,82a9.41609,9.41609,0,0,0-4.5-1.6h0a2,2,0,0,0,0,4,7.32167,7.32167,0,0,1,2.5,1.1,11.316,11.316,0,0,0,5.5,1.9h0a10.27813,10.27813,0,0,0,4.8-1.7,8.3,8.3,0,0,1,3.2-1.3,7.78855,7.78855,0,0,1,3,1.2c1.5,0.8,3.1,1.8,5,1.8h0A10.1135,10.1135,0,0,0,80,85.6a8.08908,8.08908,0,0,1,2.9-1.2,9.33581,9.33581,0,0,1,3.3,1.3c1.5,0.8,3,1.7,4.7,1.7h0a2.00588,2.00588,0,0,0,2-2A1.94421,1.94421,0,0,0,90.9,83.4Z" transform="translate(-28.9 -28.9)"/>
    <path class="cls-1" d="M57.6,63.8a8.67378,8.67378,0,0,0,5.9-2.4,1.9799,1.9799,0,0,0-2.8-2.8,4.34615,4.34615,0,0,1-6.2,0,1.9799,1.9799,0,0,0-2.8,2.8A8.31164,8.31164,0,0,0,57.6,63.8Z" transform="translate(-28.9 -28.9)"/>
    <path class="cls-1" d="M84.1,63.8A8.67378,8.67378,0,0,0,90,61.4a1.9799,1.9799,0,1,0-2.8-2.8,4.34615,4.34615,0,0,1-6.2,0,1.9799,1.9799,0,0,0-2.8,2.8A8.67378,8.67378,0,0,0,84.1,63.8Z" transform="translate(-28.9 -28.9)"/>
    <path class="cls-1" d="M88.85,42.725l-11.3,5.8a2.00409,2.00409,0,0,0-.9,2.7,2.10675,2.10675,0,0,0,1.8,1.1,2.9198,2.9198,0,0,0,.9-0.2l11.3-5.8A2.01246,2.01246,0,1,0,88.85,42.725Z" transform="translate(-28.9 -28.9)"/>
    <path class="cls-1" d="M63.25,52.7a2.10675,2.10675,0,0,0,1.8-1.1,2.00409,2.00409,0,0,0-.9-2.7l-11.3-5.8a2.01246,2.01246,0,0,0-1.8,3.6l11.2,5.8A1.64454,1.64454,0,0,0,63.25,52.7Z" transform="translate(-28.9 -28.9)"/>
  </g>
</svg>
