<?xml version="1.0" encoding="utf-8"?>
<!-- Generator: Adobe Illustrator 22.0.1, SVG Export Plug-In . SVG Version: 6.00 Build 0)  -->
<svg version="1.1"
	 id="Layer_1" xmlns:cc="http://creativecommons.org/ns#" xmlns:dc="http://purl.org/dc/elements/1.1/" xmlns:inkscape="http://www.inkscape.org/namespaces/inkscape" xmlns:rdf="http://www.w3.org/1999/02/22-rdf-syntax-ns#" xmlns:sodipodi="http://sodipodi.sourceforge.net/DTD/sodipodi-0.dtd" xmlns:svg="http://www.w3.org/2000/svg"
	 xmlns="http://www.w3.org/2000/svg" xmlns:xlink="http://www.w3.org/1999/xlink" x="0px" y="0px" viewBox="0 0 444.2 430.5"
	 style="enable-background:new 0 0 444.2 430.5;" xml:space="preserve">
<style type="text/css">
	.st0{fill:#FFFFFF;}
</style>
<g transform="translate(-190.7394,-404.62253)">
	<path class="st0" d="M200.1,450.2c-2.1-0.8-4.5-0.6-6.4,0.7c-1.9,1.3-3,3.4-3,5.7v288.8c0,2.8,1.8,5.3,4.4,6.3l107.6,42
		c1.6,0.6,3.4,0.6,5,0l105.1-40.9l105.1,40.9c0.8,0.3,1.7,0.5,2.5,0.5c0.9,0,1.7-0.2,2.5-0.5l107.6-42c2.6-1,4.4-3.5,4.4-6.3V456.6
		c-0.1-2.3-1.2-4.4-3.1-5.7c-1.9-1.3-4.2-1.5-6.3-0.7l-105.2,40.9l-105.1-40.9c-1.6-0.6-3.3-0.6-4.9,0l-105.2,40.9L200.1,450.2
		L200.1,450.2z M410.8,464.6v129.5c-0.5,0.8-0.6,1.8-0.3,2.8c0,0.1,0.2,0.2,0.3,0.2v141.6c-0.2,0-0.4,0-0.5,0.1l-103.1,40.2v-77
		c0.8-0.2,1.6-0.4,2.4-0.6c1.8-0.6,2.7-2.5,2.2-4.3c-0.6-1.8-2.5-2.8-4.3-2.2c-0.1,0-0.2,0-0.3,0.1V504.9c0.2,0,0.3,0,0.5-0.1
		L410.8,464.6L410.8,464.6z M414.9,464.7l103.1,40.1c0.1,0,0.2,0,0.3,0.1v274l-102.9-40c-0.2,0-0.3,0-0.5-0.1V598.9c0,0,0.1,0,0.2,0
		c4.3-1.7,8.5-2.9,12.4-3.6c0.9-0.1,1.5-0.7,2-1.3c1.3,4.8,5.5,8.3,10.7,8.3c3.9,0,7-2,9.1-5c0.8,0.3,1.7,0.6,2.5,1
		c0.5,0.2,1,0.4,1.5,0.4c1.2,0,2.4-0.7,3-1.9c0.9-1.7,0.3-3.7-1.5-4.6c-1.1-0.6-2.4-0.9-3.5-1.4c-0.2-6-5.1-10.8-11.2-10.8
		c-5.7,0-10.3,4.3-11,9.8c-0.8-0.8-1.8-1.4-2.9-1.2c-3.6,0.7-7.4,1.7-11.2,3.2L414.9,464.7L414.9,464.7z M204.3,466.5l98.3,38.4
		c0.1,0,0.3,0,0.5,0.1v191c-2,0.4-4.1,0.6-6.1,0.6l-1.6-0.1c-2.2-0.3-3.5,1.4-3.6,3.3c-0.1,1.9,1.3,3.5,3.2,3.6c0.6,0,1.2,0,1.9,0
		c2,0,4.1-0.2,6.1-0.5v76.1l-98.8-38.4L204.3,466.5L204.3,466.5z M621.1,466.6v274l-98.9,38.5V505c0.3,0,0.4-0.1,0.6-0.2
		L621.1,466.6L621.1,466.6z M399.8,598.9c-3.7,2.3-7.5,5-11.3,8.1c-1.5,1.2-1.7,3.3-0.6,4.8c0.7,0.9,1.7,1.3,2.7,1.3
		c0.8,0,1.4-0.2,2.1-0.7c3.6-2.9,7.3-5.5,10.8-7.6c1.6-1,2.1-3.2,1.1-4.8C403.5,598.4,401.4,597.9,399.8,598.9L399.8,598.9z
		 M466.4,600.7c-1.4-1.3-3.5-1.3-4.9,0.1c-1.3,1.4-1.3,3.5,0.1,4.9c2.9,2.7,5.7,6,8.3,9.8c0.7,1,1.7,1.5,2.7,1.5
		c0.7,0,1.4-0.2,2-0.6c1.5-1.1,1.9-3.2,0.8-4.8C472.6,607.3,469.6,603.8,466.4,600.7L466.4,600.7z M378,616
		c-3.3,3.1-6.5,6.3-9.7,9.7c-1.3,1.4-1.2,3.5,0.2,4.9c0.7,0.6,1.5,1,2.3,1c0.9,0,1.8-0.4,2.5-1.1c3.1-3.3,6.2-6.4,9.4-9.4
		c1.4-1.3,1.4-3.4,0.2-4.9C381.6,614.8,379.4,614.7,378,616L378,616z M557.5,619.7c-1.9,0-3.4,1.6-3.4,3.5v60.2
		c0,1.9,1.5,3.4,3.4,3.4c1.9,0,3.5-1.6,3.5-3.5v-39.7l24.6-9.9l-25-11.3C560.2,620.8,559.1,619.7,557.5,619.7L557.5,619.7z
		 M478.2,622c-1.7,0.9-2.4,3-1.5,4.6c1.9,3.7,3.7,7.8,5.5,12.1c0.6,1.3,1.9,2.1,3.2,2.1c0.4,0,0.9-0.1,1.3-0.2
		c1.7-0.7,2.6-2.8,1.9-4.5c-1.9-4.5-3.9-8.7-5.9-12.5C481.9,621.8,479.9,621.2,478.2,622L478.2,622z M363.9,635.6
		c-1.4-1.2-3.5-1.1-4.8,0.3c-2.9,3.4-5.8,7-8.7,10.5c-1.2,1.5-0.9,3.7,0.6,4.9c0.7,0.5,1.3,0.7,2.1,0.7c1,0,2-0.5,2.7-1.3
		c2.7-3.5,5.7-7,8.6-10.4C365.6,638.9,365.3,636.8,363.9,635.6L363.9,635.6z M489,646.8c-1.8,0.6-2.7,2.5-2.1,4.3
		c1.4,4.1,2.6,8.2,4,12.7c0.5,1.5,1.8,2.5,3.3,2.5c0.3,0,0.6,0,0.9-0.1c1.9-0.5,3-2.5,2.4-4.3c-1.3-4.6-2.8-8.9-4.2-13
		C492.7,647.2,490.7,646.2,489,646.8L489,646.8z M346.9,656.6c-1.5-1.1-3.6-0.8-4.8,0.7c-2.8,3.8-5.5,7.5-8,11.1
		c-1,1.5-0.7,3.7,0.9,4.8c0.6,0.4,1.2,0.6,1.9,0.6c1,0,2.1-0.5,2.8-1.5c2.5-3.6,5.2-7.2,7.9-10.8C348.7,660,348.5,657.8,346.9,656.6
		L346.9,656.6z M497,672.7c-1.8,0.5-3,2.3-2.5,4.2c1,4.2,2.1,8.6,3.1,13.1c0.4,1.6,1.7,2.6,3.3,2.6c0.3,0,0.5,0,0.7-0.1
		c1.9-0.4,3.1-2.2,2.7-4c-1-4.6-2.1-9-3.2-13.3C500.6,673.3,498.8,672.2,497,672.7L497,672.7z M274.7,677.2
		c-8.8,0.6-15.6,7.9-15.5,16.7c0,9.2,7.4,16.7,16.7,16.7c9.2,0,16.7-7.5,16.7-16.7c0,0,0,0,0,0c0-9.2-7.5-16.7-16.7-16.7
		c0,0,0,0,0,0C275.5,677.2,275.1,677.2,274.7,677.2L274.7,677.2z M326.1,680.2l-0.6,1c-2,3-4.4,5.7-7.2,7.9
		c-1.5,1.2-1.6,3.3-0.5,4.8c0.7,0.9,1.6,1.3,2.6,1.3c0.8,0,1.5-0.2,2.2-0.7c3.3-2.7,6.2-5.9,8.6-9.5l1-1.5l-2.8-1.9L326.1,680.2
		L326.1,680.2z M555.2,694.2c-1.8-0.7-3.8,0.2-4.4,2l-0.4,1.1c-0.7,1.6-1.4,3-2.3,4.4c-1,1.6-0.6,3.7,1,4.8c0.7,0.4,1.4,0.6,1.9,0.6
		c1.1,0,2.2-0.5,2.8-1.5c1.1-1.7,2.1-3.7,2.8-5.7l0.5-1.1C557.9,696.8,557,694.8,555.2,694.2L555.2,694.2z M503.4,699
		c-1.6,1-2.1,3.1-1.1,4.8c2.6,4.3,6.3,7.9,10.8,10.5c0.6,0.3,1.2,0.5,1.8,0.5c1.2,0,2.3-0.6,2.9-1.7c0.9-1.6,0.4-3.7-1.3-4.7
		c-3.4-2-6.3-4.9-8.3-8.3C507.2,698.5,505.1,698,503.4,699L503.4,699z M539.4,709.5c-3.1,1.5-6.5,2.2-10.1,2.2h-1.5
		c-2.1-0.2-3.5,1.3-3.6,3.2c-0.1,1.9,1.3,3.4,3.2,3.6c0.6,0,1.2,0.1,1.8,0.1c4.6,0,9-1,13-2.9c1.7-0.8,2.4-2.8,1.6-4.5
		C543.1,709.4,541.1,708.7,539.4,709.5L539.4,709.5z"/>
</g>
</svg>
