<svg id="Слой_1" data-name="Слой 1" xmlns="http://www.w3.org/2000/svg" viewBox="0 0 84.2 84.2">
  <defs>
    <style>
      .cls-1 {
        fill: #ff0;
      }

      .cls-2 {
        fill: #010202;
      }
    </style>
  </defs>
  <title>happy</title>
  <g id="Слой_4" data-name="Слой 4">
    <circle class="cls-1" cx="42.1" cy="42.1" r="40.4"/>
    <path class="cls-2" d="M70.8,29.1a42.1,42.1,0,1,0,42.1,42.1A42.16571,42.16571,0,0,0,70.8,29.1Zm0,79.1a37.1,37.1,0,1,1,37.1-37.1A37.151,37.151,0,0,1,70.8,108.2ZM90,78a27.28082,27.28082,0,0,1-38.5,0,1.9799,1.9799,0,1,0-2.8,2.8,31.26425,31.26425,0,0,0,44.2.1,1.93333,1.93333,0,0,0,0-2.8A2.15485,2.15485,0,0,0,90,78ZM57.3,64.3A3.3,3.3,0,1,0,54,61,3.32929,3.32929,0,0,0,57.3,64.3Zm26.4,0A3.3,3.3,0,1,0,80.4,61,3.32929,3.32929,0,0,0,83.7,64.3Z" transform="translate(-28.7 -29.1)"/>
  </g>
</svg>
