<?xml version="1.0" encoding="utf-8"?>
<!-- Generator: Adobe Illustrator 19.2.1, SVG Export Plug-In . SVG Version: 6.00 Build 0)  -->
<svg version="1.1" xmlns="http://www.w3.org/2000/svg" xmlns:xlink="http://www.w3.org/1999/xlink" x="0px" y="0px"
	 viewBox="0 0 141.7 141.7" style="enable-background:new 0 0 141.7 141.7;" xml:space="preserve">
<style type="text/css">
	.st0{fill:#010202;}
	.st1{fill:#00FFFF;}
	.st2{display:none;}
	.st3{display:inline;fill:#010202;}
	.st4{display:inline;fill:#FF00FF;}
	.st5{display:inline;fill:#FFFF00;}
	.st6{display:inline;fill:#FF0000;}
	.st7{fill:#0000FF;}
</style>
<g id="Слой_1">
	<g id="Слой_1_1_">
		<path class="st0" d="M70.8,29.1c-23.2,0-42.1,18.9-42.1,42.1s18.9,42.1,42.1,42.1s42.1-18.9,42.1-42.1S93.9,29.1,70.8,29.1z"/>
		<path class="st1" d="M70.8,108.2c-20.4,0-37.1-16.6-37.1-37.1S50.3,34,70.8,34s37.1,16.6,37.1,37.1S91.2,108.2,70.8,108.2z"/>
		<path class="st0" d="M80.9,64.8c0,1.8,1.5,3.3,3.3,3.3s3.3-1.5,3.3-3.3s-1.5-3.3-3.3-3.3C82.4,61.5,80.9,62.9,80.9,64.8z"/>
		<path class="st0" d="M78.2,54.2L89.5,60c0.3,0.2,0.6,0.2,0.9,0.2c0.7,0,1.4-0.4,1.8-1.1c0.5-1,0.1-2.2-0.9-2.7L80,50.6
			c-1-0.5-2.2-0.1-2.7,0.9S77.2,53.7,78.2,54.2z"/>
		<path class="st0" d="M54.5,64.8c0,1.8,1.5,3.3,3.3,3.3s3.3-1.5,3.3-3.3s-1.5-3.3-3.3-3.3S54.5,62.9,54.5,64.8z"/>
		<path class="st0" d="M51.1,60.2c0.3,0,0.6-0.1,0.9-0.2l11.3-5.8c1-0.5,1.4-1.7,0.9-2.7s-1.7-1.4-2.7-0.9l-11.3,5.8
			c-1,0.5-1.4,1.7-0.9,2.7C49.7,59.8,50.4,60.2,51.1,60.2z"/>
		<path class="st0" d="M70.7,79.3c-6.6,0-12.9,2.6-17.6,7.3c-0.8,0.8-0.8,2,0,2.8s2,0.8,2.8,0c3.9-3.9,9.2-6.1,14.7-6.1
			c5.6,0,10.8,2.2,14.7,6.1c0.4,0.4,0.9,0.6,1.4,0.6s1-0.2,1.4-0.6c0.8-0.8,0.8-2,0-2.8C83.5,81.9,77.3,79.3,70.7,79.3z"/>
	</g>
	<g id="Слой_2" class="st2">
		<path class="st3" d="M71,28.9c-23.2,0-42.1,18.9-42.1,42.1s18.9,42.1,42.1,42.1s42.1-18.9,42.1-42.1S94.2,28.9,71,28.9z"/>
		<path class="st4" d="M71,108.1c-20.4,0-37.1-16.6-37.1-37.1S50.6,33.9,71,33.9s37.1,16.6,37.1,37.1S91.4,108.1,71,108.1z"/>
		<path class="st3" d="M90.9,83.4c-0.7,0-1.7-0.6-2.7-1.2c-1.5-0.9-3.3-1.8-5.3-1.8l0,0c-1.8,0-3.4,0.9-4.9,1.7
			c-1.1,0.6-2.3,1.3-3.1,1.3c-0.8,0-2-0.6-3.1-1.3c-1.5-0.8-3.1-1.7-4.9-1.7l0,0c-1.9,0-3.7,1-5.2,1.8c-1,0.6-2.1,1.2-2.8,1.2
			c-1.1,0-2.3-0.7-3.5-1.4c-1.4-0.8-2.9-1.6-4.5-1.6l0,0c-1.1,0-2,0.9-2,2s0.9,2,2,2c0.6,0,1.6,0.6,2.5,1.1c1.6,0.9,3.4,1.9,5.5,1.9
			l0,0c1.8,0,3.3-0.9,4.8-1.7c1.1-0.6,2.3-1.3,3.2-1.3c0.8,0,1.9,0.6,3,1.2c1.5,0.8,3.1,1.8,5,1.8l0,0c1.9,0,3.6-0.9,5.1-1.8
			c1.1-0.6,2.2-1.2,2.9-1.2c0.9,0,2.1,0.7,3.3,1.3c1.5,0.8,3,1.7,4.7,1.7l0,0c1.1,0,2-0.9,2-2S92.1,83.4,90.9,83.4z"/>
		<path class="st3" d="M57.6,63.8c2.2,0,4.3-0.9,5.9-2.4c0.8-0.8,0.8-2,0-2.8c-0.8-0.8-2-0.8-2.8,0s-1.9,1.3-3.1,1.3
			s-2.3-0.5-3.1-1.3s-2-0.8-2.8,0s-0.8,2,0,2.8C53.2,62.9,55.3,63.8,57.6,63.8z"/>
		<path class="st3" d="M84.1,63.8c2.2,0,4.3-0.9,5.9-2.4c0.8-0.8,0.8-2,0-2.8s-2-0.8-2.8,0s-1.9,1.3-3.1,1.3s-2.3-0.5-3.1-1.3
			c-0.8-0.8-2-0.8-2.8,0s-0.8,2,0,2.8C79.8,62.9,81.9,63.8,84.1,63.8z"/>
		<path class="st3" d="M88.8,42.7l-11.3,5.8c-1,0.5-1.4,1.7-0.9,2.7c0.4,0.7,1.1,1.1,1.8,1.1c0.3,0,0.6-0.1,0.9-0.2l11.3-5.8
			c1-0.5,1.4-1.7,0.9-2.7C91,42.6,89.8,42.2,88.8,42.7z"/>
		<path class="st3" d="M63.3,52.7c0.7,0,1.4-0.4,1.8-1.1c0.5-1,0.1-2.2-0.9-2.7l-11.3-5.8c-1-0.5-2.2-0.1-2.7,0.9s-0.1,2.2,0.9,2.7
			l11.2,5.8C62.6,52.7,62.9,52.7,63.3,52.7z"/>
	</g>
	<g id="Слой_4" class="st2">
		<circle class="st5" cx="70.8" cy="71.2" r="40.4"/>
		<path class="st3" d="M70.8,29.1c-23.2,0-42.1,18.9-42.1,42.1s18.9,42.1,42.1,42.1s42.1-18.9,42.1-42.1S93.9,29.1,70.8,29.1z
			 M70.8,108.2c-20.4,0-37.1-16.6-37.1-37.1S50.3,34,70.8,34c20.4,0,37.1,16.6,37.1,37.1S91.2,108.2,70.8,108.2z M90,78
			c-10.6,10.6-27.9,10.6-38.5,0c-0.8-0.8-2-0.8-2.8,0s-0.8,2,0,2.8C54.8,87,62.8,90,70.8,90s16-3,22.1-9.1c0.8-0.8,0.8-2,0-2.8
			C92,77.3,90.8,77.3,90,78z M57.3,64.3c1.8,0,3.3-1.5,3.3-3.3s-1.5-3.3-3.3-3.3S54,59.2,54,61S55.5,64.3,57.3,64.3z M83.7,64.3
			c1.8,0,3.3-1.5,3.3-3.3s-1.5-3.3-3.3-3.3s-3.3,1.5-3.3,3.3S81.9,64.3,83.7,64.3z"/>
	</g>
	<g id="Слой_5" class="st2">
		<path class="st3" d="M70.7,29.1c-23.2,0-42.1,18.9-42.1,42.1s18.9,42.1,42.1,42.1s42.1-18.9,42.1-42.1S93.8,29.1,70.7,29.1z"/>
		<path class="st6" d="M70.7,108.2c-20.4,0-37.1-16.6-37.1-37.1S50.2,34,70.7,34c20.4,0,37.1,16.6,37.1,37.1S91.1,108.2,70.7,108.2z
			"/>
		<path class="st3" d="M70.7,79.3c-6.6,0-12.9,2.6-17.6,7.3c-0.8,0.8-0.8,2,0,2.8s2,0.8,2.8,0c3.9-3.9,9.2-6.1,14.7-6.1
			c5.6,0,10.8,2.2,14.7,6.1c0.4,0.4,0.9,0.6,1.4,0.6s1-0.2,1.4-0.6c0.8-0.8,0.8-2,0-2.8C83.5,81.9,77.3,79.3,70.7,79.3z"/>
		<path class="st3" d="M57.5,61.5c-1.8,0-3.3,1.5-3.3,3.3s1.5,3.3,3.3,3.3s3.3-1.5,3.3-3.3S59.3,61.5,57.5,61.5z"/>
		<path class="st3" d="M87.1,64.8c0-1.8-1.5-3.3-3.3-3.3s-3.3,1.5-3.3,3.3c0,1.8,1.5,3.3,3.3,3.3C85.7,68.1,87.1,66.6,87.1,64.8z"/>
		<path class="st3" d="M90.9,49.6l-11.3,5.8c-1,0.5-1.4,1.7-0.9,2.7c0.4,0.7,1.1,1.1,1.8,1.1c0.3,0,0.6-0.1,0.9-0.2l11.3-5.8
			c1-0.5,1.4-1.7,0.9-2.7C93.1,49.5,91.9,49.1,90.9,49.6z"/>
		<path class="st3" d="M60.8,59.2c0.7,0,1.4-0.4,1.8-1.1c0.5-1,0.1-2.2-0.9-2.7l-11.3-5.8c-1-0.5-2.2-0.1-2.7,0.9s-0.1,2.2,0.9,2.7
			L59.8,59C60.1,59.2,60.4,59.2,60.8,59.2z"/>
	</g>
</g>
<g id="Слой_2_1_">
	<circle class="st7" cx="70.8" cy="71.2" r="40.4"/>
	<path d="M71,28.9c-23.2,0-42.1,18.9-42.1,42.1s18.9,42.1,42.1,42.1s42.1-18.9,42.1-42.1S94.2,28.9,71,28.9z M71,108.1
		c-20.4,0-37.1-16.6-37.1-37.1S50.6,33.9,71,33.9s37.1,16.6,37.1,37.1S91.4,108.1,71,108.1z M57.8,57.5c-1.8,0-3.3,1.5-3.3,3.3
		s1.5,3.3,3.3,3.3s3.3-1.5,3.3-3.3S59.6,57.5,57.8,57.5z M84.2,57.5c-1.8,0-3.3,1.5-3.3,3.3s1.5,3.3,3.3,3.3s3.3-1.5,3.3-3.3
		S86,57.5,84.2,57.5z M71,72.3c-5.3,0-9.6,5.2-9.6,11.5s4.3,11.5,9.6,11.5c5.3,0,9.6-5.2,9.6-11.5S76.3,72.3,71,72.3z M71,91.3
		c-3.1,0-5.6-3.4-5.6-7.5s2.5-7.5,5.6-7.5s5.6,3.4,5.6,7.5S74.1,91.3,71,91.3z"/>
	<circle cx="57.8" cy="60.8" r="4.5"/>
	<circle cx="84.2" cy="61.1" r="4.5"/>
	<ellipse cx="70.8" cy="84" rx="6.1" ry="9.2"/>
</g>
</svg>
