<svg id="Слой_1" data-name="Слой 1" xmlns="http://www.w3.org/2000/svg" viewBox="0 0 84.2 84.2">
  <defs>
    <style>
      .cls-1 {
        fill: #010202;
      }

      .cls-2 {
        fill: aqua;
      }
    </style>
  </defs>
  <title>sad</title>
  <g id="Слой_1-2" data-name="Слой 1">
    <path class="cls-1" d="M70.8,29.1a42.1,42.1,0,1,0,42.1,42.1A42.16571,42.16571,0,0,0,70.8,29.1Z" transform="translate(-28.7 -29.1)"/>
    <path class="cls-2" d="M70.8,108.2a37.1,37.1,0,1,1,37.1-37.1A37.151,37.151,0,0,1,70.8,108.2Z" transform="translate(-28.7 -29.1)"/>
    <path class="cls-1" d="M80.9,64.8a3.3,3.3,0,1,0,3.3-3.3A3.26522,3.26522,0,0,0,80.9,64.8Z" transform="translate(-28.7 -29.1)"/>
    <path class="cls-1" d="M78.2,54.2L89.5,60a1.48611,1.48611,0,0,0,.9.2,2.10676,2.10676,0,0,0,1.8-1.1,2.00409,2.00409,0,0,0-.9-2.7L80,50.6A2.01246,2.01246,0,0,0,78.2,54.2Z" transform="translate(-28.7 -29.1)"/>
    <path class="cls-1" d="M54.5,64.8a3.3,3.3,0,1,0,3.3-3.3A3.26522,3.26522,0,0,0,54.5,64.8Z" transform="translate(-28.7 -29.1)"/>
    <path class="cls-1" d="M51.1,60.2A2.91983,2.91983,0,0,0,52,60l11.3-5.8a2.01246,2.01246,0,0,0-1.8-3.6L50.2,56.4a2.00409,2.00409,0,0,0-.9,2.7A2.10676,2.10676,0,0,0,51.1,60.2Z" transform="translate(-28.7 -29.1)"/>
    <path class="cls-1" d="M70.7,79.3a24.82281,24.82281,0,0,0-17.6,7.3,1.9799,1.9799,0,0,0,2.8,2.8,20.7623,20.7623,0,0,1,29.4,0,1.93334,1.93334,0,0,0,2.8,0,1.93333,1.93333,0,0,0,0-2.8A24.19352,24.19352,0,0,0,70.7,79.3Z" transform="translate(-28.7 -29.1)"/>
  </g>
</svg>
