<svg xmlns="http://www.w3.org/2000/svg" xmlns:xlink="http://www.w3.org/1999/xlink" xmlns:sketch="http://www.bohemiancoding.com/sketch/ns" viewBox="0 0 28 28" version="1.1" x="0px" y="0px"><title>action_030-account-user-profile-avatar</title><desc>Created with Sketch.</desc><g stroke="none" stroke-width="1" fill="none" fill-rule="evenodd" sketch:type="MSPage"><g sketch:type="MSArtboardGroup" transform="translate(-450.500000, -135.500000)" fill="#000000"><g sketch:type="MSLayerGroup" transform="translate(452.000000, 137.000000)"><path d="M25,12.5 C25,5.59644063 19.4035594,0 12.5,0 C5.59644063,0 0,5.59644063 0,12.5 C0,19.4035594 5.59644063,25 12.5,25 C19.4035594,25 25,19.4035594 25,12.5 Z M1,12.5 C1,6.14872538 6.14872538,1 12.5,1 C18.8512746,1 24,6.14872538 24,12.5 C24,18.8512746 18.8512746,24 12.5,24 C6.14872538,24 1,18.8512746 1,12.5 Z" sketch:type="MSShapeGroup"/><path d="M12.5,15 C15.5375661,15 18,12.5375661 18,9.5 C18,6.46243388 15.5375661,4 12.5,4 C9.46243388,4 7,6.46243388 7,9.5 C7,12.5375661 9.46243388,15 12.5,15 Z M12.5,14 C14.9852814,14 17,11.9852814 17,9.5 C17,7.01471863 14.9852814,5 12.5,5 C10.0147186,5 8,7.01471863 8,9.5 C8,11.9852814 10.0147186,14 12.5,14 Z" sketch:type="MSShapeGroup"/><path d="M9,18 L16,18 C18.3180722,18 19.9811489,18.7798033 21.0218311,20.0807297 C21.1943299,20.2963655 21.5089751,20.3313348 21.7246108,20.158836 C21.9402466,19.9863372 21.975216,19.671692 21.8027171,19.4560562 C20.5700158,17.9150923 18.6184101,17 16,17 L9,17 C6.38158994,17 4.42998422,17.9150923 3.19728286,19.4560562 C3.02478405,19.671692 3.05975342,19.9863372 3.27538916,20.158836 C3.49102489,20.3313348 3.80567011,20.2963655 3.97816893,20.0807297 C5.01885112,18.7798033 6.68192777,18 9,18 Z" sketch:type="MSShapeGroup"/></g></g></g><text x="0" y="45" fill="#000000" font-size="5px" font-weight="bold" font-family="'Helvetica Neue', Helvetica, Arial-Unicode, Arial, Sans-serif">Created by Pham Thi Dieu Linh</text><text x="0" y="50" fill="#000000" font-size="5px" font-weight="bold" font-family="'Helvetica Neue', Helvetica, Arial-Unicode, Arial, Sans-serif">from the Noun Project</text></svg>